<svg xmlns:svg="http://www.w3.org/2000/svg" viewBox="24 26 68 68" fill="#000" stroke="#000">
  <path
     d=""
     style="baseline-shift:baseline;display:inline;overflow:visible;vector-effect:none;stroke:none;stroke-miterlimit:10;enable-background:accumulate;stop-color:#000000;stop-opacity:1"
     id="path24" />
  <path
     d="m 50.962891,51.994141 -6.835938,11.658203 h 4.119141 l 6.757812,-11.525391 h -3.015625 c -0.353867,0 -0.697487,-0.04631 -1.02539,-0.132812 z"
     style="baseline-shift:baseline;display:inline;overflow:visible;vector-effect:none;stroke:none;stroke-miterlimit:10;enable-background:accumulate;stop-color:#000000;stop-opacity:1"
     id="path23" />
  <path
     d=""
     style="baseline-shift:baseline;display:inline;overflow:visible;vector-effect:none;stroke:none;stroke-miterlimit:10;enable-background:accumulate;stop-color:#000000;stop-opacity:1"
     id="path22" />
  <path
     d="m 65.15625,52.011719 c -0.302543,0.07534 -0.61998,0.115234 -0.947266,0.115234 h -3.042968 l 6.755859,11.525391 h 4.058594 z"
     style="baseline-shift:baseline;display:inline;overflow:visible;vector-effect:none;stroke:none;stroke-miterlimit:10;enable-background:accumulate;stop-color:#000000;stop-opacity:1"
     id="path21" />
  <path
     d="m 36.998047,64.652344 c -1.681226,0 -3.052735,1.371508 -3.052735,3.052734 v 9.378906 c 0,1.681227 1.371509,3.052735 3.052735,3.052735 h 12.222656 c 1.681226,0 3.052734,-1.371508 3.052734,-3.052735 v -0.5 -8.878906 c 0,-1.681226 -1.371508,-3.052734 -3.052734,-3.052734 z"
     style="baseline-shift:baseline;display:inline;overflow:visible;vector-effect:none;stroke:none;enable-background:accumulate;stop-color:#000000;stop-opacity:1"
     id="path20" />
  <path
     d="m 36.998047,63.652344 c -2.226774,0 -4.052734,1.82596 -4.052735,4.052734 v 9.378906 c 0,2.226774 1.825961,4.052735 4.052735,4.052735 h 12.222656 c 2.049759,0 3.692199,-1.569888 3.951172,-3.552735 h 0.101562 v -0.5 -9.378906 c 0,-2.226774 -1.82596,-4.052734 -4.052734,-4.052734 z m 0,1 h 12.222656 c 1.681226,0 3.052734,1.371508 3.052734,3.052734 v 8.878906 0.5 c 0,1.681227 -1.371508,3.052735 -3.052734,3.052735 H 36.998047 c -1.681226,0 -3.052735,-1.371508 -3.052735,-3.052735 v -9.378906 c 0,-1.681226 1.371509,-3.052734 3.052735,-3.052734 z"
     style="baseline-shift:baseline;display:inline;overflow:visible;vector-effect:none;stroke:none;enable-background:accumulate;stop-color:#000000;stop-opacity:1"
     id="path19" />
  <path
     d="m 51.988281,35.642578 c -1.681226,0 -3.052734,1.371508 -3.052734,3.052734 v 9.378907 c 0,1.681226 1.371508,3.052734 3.052734,3.052734 h 12.220703 c 1.681227,0 3.052735,-1.371508 3.052735,-3.052734 v -0.5 h 0.002 v -8.878907 c 0,-1.681226 -1.371507,-3.052734 -3.052735,-3.052734 z"
     style="baseline-shift:baseline;display:inline;overflow:visible;vector-effect:none;stroke:none;enable-background:accumulate;stop-color:#000000;stop-opacity:1"
     id="path18" />
  <path
     d="m 51.988281,34.642578 c -2.226774,0 -4.052734,1.825961 -4.052734,4.052734 v 9.378907 c 0,2.226774 1.82596,4.052734 4.052734,4.052734 h 12.220703 c 2.04976,0 3.692199,-1.569888 3.951172,-3.552734 h 0.103516 v -9.878907 c 0,-2.226773 -1.82596,-4.052734 -4.052735,-4.052734 z m 0,1 h 12.222656 c 1.681228,0 3.052735,1.371508 3.052735,3.052734 v 8.878907 h -0.002 v 0.5 c 0,1.681226 -1.371508,3.052734 -3.052735,3.052734 H 51.988281 c -1.681226,0 -3.052734,-1.371508 -3.052734,-3.052734 v -9.378907 c 0,-1.681226 1.371508,-3.052734 3.052734,-3.052734 z"
     style="baseline-shift:baseline;display:inline;overflow:visible;vector-effect:none;stroke:none;enable-background:accumulate;stop-color:#000000;stop-opacity:1"
     id="path17" />
  <path
     d="m 66.976562,64.652344 c -1.681225,0 -3.052734,1.371508 -3.052734,3.052734 v 9.378906 c 0,1.681227 1.371509,3.052735 3.052734,3.052735 h 12.222657 c 1.681226,0 3.052734,-1.371508 3.052734,-3.052735 v -9.378906 c 0,-1.681226 -1.371508,-3.052734 -3.052734,-3.052734 z"
     style="baseline-shift:baseline;display:inline;overflow:visible;vector-effect:none;stroke:none;enable-background:accumulate;stop-color:#000000;stop-opacity:1"
     id="path16" />
  <path
     d="m 66.976562,63.652344 c -2.226772,0 -4.052734,1.82596 -4.052734,4.052734 v 9.378906 c 0,2.226774 1.825962,4.052735 4.052734,4.052735 h 12.222657 c 2.226774,0 4.052734,-1.825961 4.052734,-4.052735 v -9.378906 c 0,-2.226774 -1.82596,-4.052734 -4.052734,-4.052734 z m 0,1 h 12.222657 c 1.681226,0 3.052734,1.371508 3.052734,3.052734 v 9.378906 c 0,1.681227 -1.371508,3.052735 -3.052734,3.052735 H 66.976562 c -1.681225,0 -3.052734,-1.371508 -3.052734,-3.052735 v -9.378906 c 0,-1.681226 1.371509,-3.052734 3.052734,-3.052734 z"
     style="baseline-shift:baseline;display:inline;overflow:visible;vector-effect:none;stroke:none;enable-background:accumulate;stop-color:#000000;stop-opacity:1"
     id="path15" />
</svg>
